# xmcd
#
# Track frame offsets: 
#        150
#        7904
#        15450
#        22679
#        31723
#        39472
#        47920
#        53775
#        62143
#        68062
#        74692
#        83720
#        95062
#        111048
#        119136
#        126105
#        137821
#        145256
#        151255
#        159297
#
# Disc length: 2234 seconds
#
# Revision: 2
# Processed by: cddbd v1.5.2PL0 Copyright (c) Steve Scherf et al.
# Submitted via: ExactAudioCopy v1.3
#
DISCID=0708b814
DTITLE=Bud Isaacs - The Swingin' Steel Guitar Of Bud Isaacs
DYEAR=1900
DGENRE=Instrumental
TTITLE0=Steel Guitar Rag -2
TTITLE1=Hawaiian War Chant
TTITLE2=This Is Southland
TTITLE3=Kentucky Waltz
TTITLE4=The Waltz You Saved For Me -1
TTITLE5=Whispering Hope
TTITLE6=Texas Playboy Rag -2
TTITLE7=Rose Room
TTITLE8=Steel Guitar Chimes
TTITLE9=Bud's Bounce
TTITLE10=I Can't Go On This Way
TTITLE11=Silver Moon On The Golden Gate
TTITLE12=Two Out Of Three (Vocal)
TTITLE13=Over The Waves
TTITLE14=Melody Of Love
TTITLE15=Waltz Of The Ozarks
TTITLE16=Hawaiian Sunset
TTITLE17=Georgia Steel Guitar
TTITLE18=Steelin' Away
TTITLE19=Beautiful Kawana
EXTD=
EXTT0=
EXTT1=
EXTT2=
EXTT3=
EXTT4=
EXTT5=
EXTT6=
EXTT7=
EXTT8=
EXTT9=
EXTT10=
EXTT11=
EXTT12=
EXTT13=
EXTT14=
EXTT15=
EXTT16=
EXTT17=
EXTT18=
EXTT19=
PLAYORDER=
